<svg width="161" height="52" viewBox="0 0 161 52" fill="none" xmlns="http://www.w3.org/2000/svg">
<path d="M13.6 5.304C17.152 5.304 20.256 6.008 22.912 7.416C25.568 8.824 27.616 10.808 29.056 13.368C30.528 15.896 31.264 18.824 31.264 22.152C31.264 25.448 30.528 28.376 29.056 30.936C27.616 33.496 25.552 35.48 22.864 36.888C20.208 38.296 17.12 39 13.6 39H0.976V5.304H13.6ZM13.072 31.896C16.176 31.896 18.592 31.048 20.32 29.352C22.048 27.656 22.912 25.256 22.912 22.152C22.912 19.048 22.048 16.632 20.32 14.904C18.592 13.176 16.176 12.312 13.072 12.312H9.184V31.896H13.072ZM34.219 25.56C34.219 22.808 34.731 20.392 35.755 18.312C36.811 16.232 38.235 14.632 40.027 13.512C41.819 12.392 43.819 11.832 46.027 11.832C47.915 11.832 49.563 12.216 50.971 12.984C52.411 13.752 53.515 14.76 54.283 16.008V12.216H62.491V39H54.283V35.208C53.483 36.456 52.363 37.464 50.923 38.232C49.515 39 47.867 39.384 45.979 39.384C43.803 39.384 41.819 38.824 40.027 37.704C38.235 36.552 36.811 34.936 35.755 32.856C34.731 30.744 34.219 28.312 34.219 25.56ZM54.283 25.608C54.283 23.56 53.707 21.944 52.555 20.76C51.435 19.576 50.059 18.984 48.427 18.984C46.795 18.984 45.403 19.576 44.251 20.76C43.131 21.912 42.571 23.512 42.571 25.56C42.571 27.608 43.131 29.24 44.251 30.456C45.403 31.64 46.795 32.232 48.427 32.232C50.059 32.232 51.435 31.64 52.555 30.456C53.707 29.272 54.283 27.656 54.283 25.608ZM102.605 11.928C105.933 11.928 108.573 12.936 110.525 14.952C112.509 16.968 113.501 19.768 113.501 23.352V39H105.341V24.456C105.341 22.728 104.877 21.4 103.949 20.472C103.053 19.512 101.805 19.032 100.205 19.032C98.6051 19.032 97.3411 19.512 96.4131 20.472C95.5171 21.4 95.0691 22.728 95.0691 24.456V39H86.9091V24.456C86.9091 22.728 86.4451 21.4 85.5171 20.472C84.6211 19.512 83.3731 19.032 81.7731 19.032C80.1731 19.032 78.9091 19.512 77.9811 20.472C77.0851 21.4 76.6371 22.728 76.6371 24.456V39H68.4291V12.216H76.6371V15.576C77.4691 14.456 78.5571 13.576 79.9011 12.936C81.2451 12.264 82.7651 11.928 84.4611 11.928C86.4771 11.928 88.2691 12.36 89.8371 13.224C91.4371 14.088 92.6851 15.32 93.5811 16.92C94.5091 15.448 95.7731 14.248 97.3731 13.32C98.9731 12.392 100.717 11.928 102.605 11.928ZM127.45 16.008C128.25 14.76 129.354 13.752 130.762 12.984C132.17 12.216 133.818 11.832 135.706 11.832C137.914 11.832 139.914 12.392 141.706 13.512C143.498 14.632 144.906 16.232 145.93 18.312C146.986 20.392 147.514 22.808 147.514 25.56C147.514 28.312 146.986 30.744 145.93 32.856C144.906 34.936 143.498 36.552 141.706 37.704C139.914 38.824 137.914 39.384 135.706 39.384C133.85 39.384 132.202 39 130.762 38.232C129.354 37.464 128.25 36.472 127.45 35.256V51.768H119.242V12.216H127.45V16.008ZM139.162 25.56C139.162 23.512 138.586 21.912 137.434 20.76C136.314 19.576 134.922 18.984 133.258 18.984C131.626 18.984 130.234 19.576 129.082 20.76C127.962 21.944 127.402 23.56 127.402 25.608C127.402 27.656 127.962 29.272 129.082 30.456C130.234 31.64 131.626 32.232 133.258 32.232C134.89 32.232 136.282 31.64 137.434 30.456C138.586 29.24 139.162 27.608 139.162 25.56ZM155.948 9.432C154.508 9.432 153.324 9.016 152.396 8.184C151.5 7.32 151.052 6.264 151.052 5.016C151.052 3.736 151.5 2.68 152.396 1.848C153.324 0.983997 154.508 0.551997 155.948 0.551997C157.356 0.551997 158.508 0.983997 159.404 1.848C160.332 2.68 160.796 3.736 160.796 5.016C160.796 6.264 160.332 7.32 159.404 8.184C158.508 9.016 157.356 9.432 155.948 9.432ZM160.028 12.216V39H151.82V12.216H160.028Z" fill="#54BEFF"/>
</svg>
